<svg width="48" height="47" viewBox="0 0 48 47" fill="none" xmlns="http://www.w3.org/2000/svg">
<path d="M47.5891 0.402298H0.410858V46.5977H47.5891V0.402298Z" fill="#FC4951"/>
<path fill-rule="evenodd" clip-rule="evenodd" d="M23.4654 9.32594C26.8643 9.32594 29.9831 10.4825 32.4435 12.4163L30.59 16.3021C28.7598 14.5329 26.2434 13.4449 23.4701 13.4449C17.8629 13.4449 13.3201 17.893 13.3201 23.3834C13.3201 27.7492 16.1961 31.4568 20.1926 32.7917L18.6239 36.618C13.082 34.6706 9.11351 29.4819 9.11351 23.3834C9.11351 15.621 15.5378 9.33051 23.4654 9.33051V9.32594Z" fill="white"/>
<path fill-rule="evenodd" clip-rule="evenodd" d="M35.3569 15.5021C36.9116 17.7467 37.822 20.4622 37.822 23.3789C37.822 31.1413 31.3977 37.4318 23.4701 37.4318C22.3496 37.4318 21.2571 37.3038 20.2113 37.0661L21.8033 33.1802C22.3449 33.2671 22.9005 33.3128 23.4701 33.3128C29.0773 33.3128 33.6201 28.8647 33.6201 23.3743C33.6201 22.4371 33.4847 21.5274 33.2372 20.6679L35.3569 15.4975V15.5021Z" fill="white"/>
<path fill-rule="evenodd" clip-rule="evenodd" d="M28.5824 31.9596L26.4675 37.1209C25.8559 37.2489 25.2256 37.3403 24.5859 37.386C24.5953 37.386 24.5999 37.386 24.6093 37.386L26.4581 32.8739C27.2098 32.6499 27.9195 32.3391 28.5871 31.9596H28.5824Z" fill="black" fill-opacity="0.14902"/>
<path fill-rule="evenodd" clip-rule="evenodd" d="M14.9262 34.6751C14.464 34.3368 14.0204 33.9757 13.6002 33.5871L15.3417 29.3401C15.7012 29.811 16.1027 30.2453 16.5369 30.6476L14.8935 34.6568L14.9215 34.6797L14.9262 34.6751Z" fill="black" fill-opacity="0.14902"/>
<path fill-rule="evenodd" clip-rule="evenodd" d="M20.6361 20.6496L14.8982 34.6523C16.0233 35.4751 17.2746 36.138 18.6239 36.6089L18.8807 35.9826L25.1695 20.6496H20.6408H20.6361ZM24.6046 37.386L26.4535 32.8739L32.056 19.2096L34.1803 14.0255L35.8564 9.93852H31.3837L31.3277 9.94309L30.7814 11.278L29.1894 15.1638L21.8033 33.1757L20.2113 37.0615C21.2571 37.2992 22.3402 37.4226 23.4608 37.4272C23.5821 37.4272 23.7035 37.4272 23.8249 37.4226H23.8436C23.9556 37.4181 24.0677 37.4135 24.1798 37.4089L24.2311 37.4043C24.3338 37.3998 24.4319 37.3906 24.5346 37.386C24.5579 37.386 24.5813 37.3815 24.6046 37.3815V37.386Z" fill="white"/>
</svg>
